<?xml version="1.0" standalone="no"?>
<!DOCTYPE svg PUBLIC "-//W3C//DTD SVG 1.1//EN" "http://www.w3.org/Graphics/SVG/1.1/DTD/svg11.dtd" >
<!--
2013-9-30: Created.
-->
<svg>
<metadata>
Created by iconfont
</metadata>
<defs>

<font id="iconfont" horiz-adv-x="1024" >
  <font-face
    font-family="iconfont"
    font-weight="500"
    font-stretch="normal"
    units-per-em="1024"
    ascent="896"
    descent="-128"
  />
    <missing-glyph />
    
    <glyph glyph-name="x" unicode="x" horiz-adv-x="1001"
d="M281 543q-27 -1 -53 -1h-83q-18 0 -36.5 -6t-32.5 -18.5t-23 -32t-9 -45.5v-76h912v41q0 16 -0.5 30t-0.5 18q0 13 -5 29t-17 29.5t-31.5 22.5t-49.5 9h-133v-97h-438v97zM955 310v-52q0 -23 0.5 -52t0.5 -58t-10.5 -47.5t-26 -30t-33 -16t-31.5 -4.5q-14 -1 -29.5 -0.5
t-29.5 0.5h-32l-45 128h-439l-44 -128h-29h-34q-20 0 -45 1q-25 0 -41 9.5t-25.5 23t-13.5 29.5t-4 30v167h911zM163 247q-12 0 -21 -8.5t-9 -21.5t9 -21.5t21 -8.5q13 0 22 8.5t9 21.5t-9 21.5t-22 8.5zM316 123q-8 -26 -14 -48q-5 -19 -10.5 -37t-7.5 -25t-3 -15t1 -14.5
t9.5 -10.5t21.5 -4h37h67h81h80h64h36q23 0 34 12t2 38q-5 13 -9.5 30.5t-9.5 34.5q-5 19 -11 39h-368zM336 498v228q0 11 2.5 23t10 21.5t20.5 15.5t34 6h188q31 0 51.5 -14.5t20.5 -52.5v-227h-327z" />
    

    
    <glyph glyph-name="shanchu1" unicode="&#59064;" d="M509.925833 879.373074c-275.054338 0-498.030043-222.975705-498.030043-498.030043s222.975705-498.030043 498.030043-498.030043c275.05332 0 498.030043 222.975705 498.030043 498.030043S784.979153 879.373074 509.925833 879.373074zM509.925833-79.33369c-254.425669 0-460.677739 206.253087-460.677739 460.677739S255.500164 842.02077 509.925833 842.02077c254.424651 0 460.677739-206.253087 460.677739-460.677739S764.350485-79.33369 509.925833-79.33369zM487.07997 240.521627 487.07997 438.179776c0 9.93564-8.030969 17.968645-17.966609 17.968645-9.939712 0-17.969663-8.033005-17.969663-17.968645l0-197.658148c0-9.93564 8.030969-17.966609 17.969663-17.966609C479.049001 222.555019 487.07997 230.585988 487.07997 240.521627zM684.80836 455.680143c-9.93564 0-17.969663-8.049293-17.969663-17.966609l0-269.06445c0-9.919352-8.050311-17.970681-17.968645-17.970681L397.273394 150.678403c-9.901028 0-17.967627 8.050311-17.967627 17.970681L379.305767 438.446491c0 9.919352-8.049293 17.970681-17.968645 17.970681s-17.968645-8.050311-17.968645-17.970681l0-269.796389c0-29.722425 24.185546-53.905935 53.905935-53.905935l251.595641 0c29.718353 0 53.907971 24.18351 53.907971 53.905935L702.778023 437.713534C702.778023 447.630849 694.744 455.680143 684.80836 455.680143zM756.608626 528.019946l-89.841189 0 0 35.939326c0 29.720389-23.99009 53.905935-53.494664 53.905935L433.173018 617.865207c-29.718353 0-53.901863-24.185546-53.901863-53.905935l0-35.939326-89.844243 0c-9.938694 0-17.968645-8.026897-17.968645-17.968645 0-9.93564 8.030969-17.966609 17.968645-17.966609l467.181714 0c9.93564 0 17.969663 8.030969 17.969663 17.966609C774.578289 519.993049 766.544266 528.019946 756.608626 528.019946zM630.828112 528.019946 415.207427 528.019946l0 35.939326c0 9.90001 8.065581 17.968645 17.965591 17.968645l180.099756 0c9.850128 0 17.555339-7.890486 17.555339-17.968645L630.828112 528.019946zM594.89184 240.521627 594.89184 438.179776c0 9.93564-8.031987 17.968645-17.968645 17.968645-9.93564 0-17.966609-8.033005-17.966609-17.968645l0-197.658148c0-9.93564 8.030969-17.966609 17.966609-17.966609C586.859853 222.555019 594.89184 230.585988 594.89184 240.521627z"  horiz-adv-x="1024" />

    
    <glyph glyph-name="tianjia-" unicode="&#58880;" d="M68.26666667 411.30666667h887.46666666v-54.61333334h-887.46666666zM484.69333333 820.90666667h54.61333334v-887.46666667h-54.61333334z"  horiz-adv-x="1024" />

    
    <glyph glyph-name="bianji" unicode="&#58926;" d="M851.29813332 371.38879999999995c-11.776-0.40426667-20.99413333-10.2816-20.58666665-22.0576 0.9568-27.792-1.41653333-55.80373334-7.05066667-83.25866667-18.9088-92.13866668-72.56213333-171.39733333-151.0752-223.17226666-58.21973333-38.39253333-124.93013333-58.26666667-193.09653333-58.2656-23.76213333 0.00106667-47.7088 2.41706667-71.52533334 7.30453333-92.12906667 18.90453333-171.38026667 72.55253333-223.15626666 151.06026667-51.77600001 78.50986666-69.87519999 172.48533333-50.96640001 264.61760001 16.7168 81.48373333 61.8816 154.6208 127.17866667 205.93493332 64.54506667 50.72533333 145.03253333 77.47306667 226.5888 75.3248 11.76746667-0.352 21.57973333 8.98453333 21.888 20.76480001 0.31146668 11.78026668-8.98453333 21.57973333-20.7648 21.89013332-91.51253333 2.4288-181.73013332-27.56906667-254.08213333-84.42986666-73.22026668-57.54239999-123.86666667-139.54773333-142.60906667-230.9056-21.20106666-103.29813333-0.9056-208.66346667 57.14666667-296.688 58.04906667-88.02346667 146.90560001-148.1728 250.19626667-169.36746667 26.70613333-5.4816 53.54453333-8.19093333 80.19306666-8.19093333 76.42026668 0.00106667 151.2288 22.28479999 216.4992 65.32586666 88.02986667 58.0512 148.18453333 146.91306666 169.3856 250.21866667 6.31146667 30.75413333 8.9664 62.1472 7.8944 93.3056-0.40639999 11.77706667-10.24853333 21.04106667-22.05760001 20.5888zM931.81333333 714.71786667l-127.66186665 105.97866666c-0.0416 0.03413333-0.08213333 0.06933333-0.12373335 0.10133334-3.18613333 2.60373334-14.80106665 10.30933333-30.60053333 0.13866665-4.4352-2.85440001-8.9152-6.94933333-13.00480001-11.89546666L428.41386667 404.496c-9.39733333-11.32693333-12.0576-20.61013333-11.7504-27.76213332l-63.56053334-205.55200001a21.33226667 21.33226667 0 0 1 20.3872-27.63840001c3.48906667 0 6.9984 0.85546667 10.19626667 2.59626667l187.92 102.28586668c7.024 1.0944 15.53493334 5.4496 24.80106668 16.58346666l0.09066665 0.112 8.13226667 9.9104a21.15626667 21.15626667 0 0 1 2.2112 2.69546666l321.70133333 392.00213334c17.25866668 20.81493332 12.576 37.22133333 3.2704 44.9888zM452.92799999 349.56586667a177.40906667 177.40906667 0 0 1 9.02826667-13.88266667c14.74026667-20.48746667 38.6592-44.14613333 75.44106667-57.29493333l-128.02666666-69.6864 43.55733332 140.864z m126.89173334-37.50613333c-69.47626667 8.56853333-94.71893333 62.992-102.1824 85.15306666l311.9584 380.11093333 102.33386667-84.95253333-312.10986667-380.31146668z"  horiz-adv-x="1024" />

    
    <glyph glyph-name="shangchuan" unicode="&#58980;" d="M809.43521185 533.9693511099999C780.81896297 666.13475555 661.54116741 763.56494222 524.78824297 763.56494222S268.75979852 666.13475555 240.14241185 533.9693511099999c-50.02695111-3.71370667-96.55637333-24.90254222-132.38272-60.94848-39.75964445-39.75964445-61.60497778-92.40576-61.60497777-148.54826666 0-115.99872 94.37184-210.37169778 210.37169777-210.37169778h63.78837333c12.45184 0 22.50183111 10.04885333 22.50183112 22.50069333 0 12.23452445-10.04999111 22.28224-22.50183112 22.28224h-63.78837333c-91.31349333 0-165.36917333 74.27413333-165.36917333 165.58876445 0 44.12757333 17.25781333 85.63370667 48.27932445 116.87253333 31.23882667 31.23882667 72.96341333 48.49777778 117.09098666 48.49777777h21.84533334l2.83989333 19.00544c17.69472 119.71242667 122.55345778 209.7152 243.57546667 209.7152 121.02542222 0 225.88302222-90.00277333 243.57774221-209.7152l2.83875557-19.00544h21.84533333c91.31463111 0 165.37031111-74.27413333 165.3703111-165.36917333 0-44.34716445-17.04049778-85.85216-48.27932443-117.09212444s-72.74496-48.49777778-117.09098667-48.49777778h-63.78837333c-12.23338667 0-22.28337778-10.04771555-22.28337778-22.28224 0-12.45184 10.04999111-22.50069333 22.28337778-22.50069333h63.78837333c56.36096 0 109.22666667 21.84533333 148.76672 61.60384 39.75964445 39.75964445 61.60497778 92.62421333 61.60497777 148.76785778 0 110.31893333-85.63370667 201.19665778-193.98656 209.49674666zM671.59002075 330.15125333000003c-8.73813333-8.73813333-22.9376-8.73813333-31.67573334 0L547.29007408 422.77546667v-396.05703112c0-12.23452445-10.04885333-22.28337778-22.50183111-22.28337777-12.45184 0-22.49955555 10.04885333-22.49955556 22.28337777V417.09681778l-92.40689778-92.62421333c-4.58638222-4.36906667-10.26730667-6.5536-15.94595555-6.5536-5.68092445 0-11.57802667 2.18453333-15.94709333 6.5536-8.73813333 8.73813333-8.73813333 22.9376 0 31.67573333l149.64053333 149.64053333 143.96188444-143.96188444c8.73699555-8.73813333 8.73699555-22.9376 0-31.67573334z"  horiz-adv-x="1039" />

    
    <glyph glyph-name="wo" unicode="&#59001;" d="M505.3034375 348.406875c221.26875001 0 401.28-180.015 401.28-401.28h38.4c0 242.8303125-196.850625 439.68-439.68 439.68S65.6234375 189.95718751000004 65.6234375-52.87312499999996h38.4c0 221.265 180.015 401.28 401.28 401.28zM505.3034375 788.724375c110.81437499 0 200.96625001-90.155625 200.96625-200.96625 0-71.175-37.190625-133.824375-93.159375-169.5403125-31.17187501-19.8909375-68.17125001-31.4296875-107.81156249-31.4296875-39.5934375 0-76.5496875 11.5078125-107.69625001 31.35749999-56.0296875 35.70374999-93.27 98.3878125-93.27 169.60875001 0.00374999 110.81437499 90.159375 200.97 200.9709375 200.97m0 38.4c-132.1996875 0-239.3671875-107.1665625-239.36718751-239.36625 0-84.9253125 44.22562501-159.5175 110.90343751-202.010625 37.1175-23.655 81.189375-37.359375 128.4675-37.359375 132.1996875 0 239.36625001 107.165625 239.36625 239.36625S637.503125 827.124375 505.3034375 827.124375z"  horiz-adv-x="1024" />

    
    <glyph glyph-name="shanchu" unicode="&#59002;" d="M407.43124999 119.625a22.50000001 22.50000001 0 0 1 22.50000002 22.5V491.15625001a22.50000001 22.50000001 0 1 1-45-2e-8V142.125a22.50000001 22.50000001 0 0 1 22.49999998-22.5z m202.78125002 0a22.50000001 22.50000001 0 0 1 22.49999999 22.5V491.15625001a22.50000001 22.50000001 0 0 1-45-2e-8V142.125a22.50000001 22.50000001 0 0 1 22.49999999-22.5zM933.875 639.65625001H707.35625001v53.99999998c0 51.8625-59.34375001 92.475-135.00000002 92.47500002h-120.65624998c-75.7125 0-135-40.1625-135-91.40625001v-55.06874999H90.125a22.50000001 22.50000001 0 1 1 0-45h130.6125a22.05 22.05 0 0 1-6.24374999-15.35625V116.8125c0-74.41875001 60.58125001-135 135-135h324.95624999c74.41875001 0 135 60.58125001 135 135V574.0125a22.50000001 22.50000001 0 0 1-13.66875001 20.64375001H933.875a22.50000001 22.50000001 0 1 1 0 44.99999998z m-572.17499999 55.06874999c0 21.9375 38.53125001 46.40625001 89.99999998 46.40624999h120.65625c51.525 0 90-25.03125002 90-47.475v-54h-300.65625v55.06875001z m402.74999999-120.7125V116.8125c0-49.6125-40.3875-90-90-90H349.49374999c-49.6125 0-90 40.3875-89.99999998 90V579.3000000100001a22.1625 22.1625 0 0 1-6.24375001 15.35625h524.86875001a22.50000001 22.50000001 0 0 1-13.66875001-20.64375001z"  horiz-adv-x="1024" />

    
    <glyph glyph-name="xitongguanli" unicode="&#59017;" d="M363.06488889-11.946666670000013l-0.22755556 34.01955556h358.05866667L929.792 384 720.896 745.81333333H303.104L94.208 384l178.63111111-309.36177778 118.10133334 76.00355556 18.432-28.78577778-148.25244445-95.34577778L54.72711111 384l228.69333334 395.94666667h457.1591111l228.69333334-395.94666667L740.69333333-11.946666670000013zM511.43111111 569.45777778c49.37955555 0 95.80088889-19.22844445 130.61688889-54.15822223s54.15822222-81.35111111 54.15822222-130.61688888-19.22844445-95.80088889-54.15822222-130.61688889-81.35111111-54.15822222-130.61688889-54.15822223-95.80088889 19.22844445-130.61688889 54.15822223S326.54222222 335.30311111000003 326.54222222 384.56888889s19.22844445 95.80088889 54.15822223 130.61688889S462.05155555 569.45777778 511.43111111 569.45777778m0 34.13333333C390.48533333 603.5911111099999 292.40888889 505.51466667 292.40888889 384.56888889s98.07644445-218.90844445 218.90844444-218.90844444 218.90844445 98.07644445 218.90844445 218.90844444S632.26311111 603.5911111099999 511.43111111 603.5911111099999z"  horiz-adv-x="1024" />

    
    <glyph glyph-name="suo" unicode="&#58893;" d="M744.106667 503.296h-28.330667v109.909333c0 132.266667-94.208 235.690667-228.010667 235.690667-134.314667 0-225.962667-105.813333-225.962666-235.690667v-109.909333h-28.330667c-62.634667 0-113.493333-51.712-113.493333-115.2v-345.6c0-63.488 50.858667-115.2 113.493333-115.2H744.106667c62.634667 0 113.493333 51.712 113.493333 115.2V388.096c0 63.488-50.858667 115.2-113.493333 115.2z m-434.688 109.909333c0 98.133333 75.093333 187.050667 178.176 187.050667 102.058667 0 176.64-87.210667 176.64-187.050667v-109.909333h-354.986667v109.909333z m503.637333-577.536c0-33.109333-26.453333-59.904-58.88-59.904h-530.773333c-32.597333 0-59.050667 26.794667-59.050667 59.904V394.922667c0 32.938667 26.453333 59.904 59.050667 59.904h530.773333c32.426667 0 58.88-26.794667 58.88-59.904v-359.253334z m0 0M488.789333 330.581333c-31.402667 0-56.661333-25.770667-56.661333-57.685333 0-21.333333 15.018667-39.936 31.914667-49.834667v-94.208c0-15.872 9.045333-28.842667 24.746666-28.842666s24.746667 12.8 24.746667 28.842666v94.037334c16.896 9.898667 31.914667 28.501333 31.914667 49.834666 0 31.914667-25.429333 57.685333-56.661334 57.856z m0 0"  horiz-adv-x="1024" />

    
    <glyph glyph-name="jiantou-r" unicode="&#59041;" d="M329.24444445 384l384 384.00000001c12.8 12.8 12.8 31.999 0 44.79899999s-31.999 12.8-44.799 0l-403.2-403.2c-6.4-6.4-12.8-19.199-12.8-25.6s0-19.19899999 6.4-25.59900001l409.6-409.6c12.8-12.8 31.999-12.8 44.79899999 0s12.8 31.999 1e-8 44.799l-384 390.39900001z"  horiz-adv-x="1024" />

    
    <glyph glyph-name="fenxiang1" unicode="&#59402;" d="M699.392 297.472c-36.352 0-66.048-19.456-79.872-49.664L443.904 322.56c10.24 15.872 15.872 35.328 15.872 56.32 0 8.704-1.024 17.408-3.072 25.6l112.128 87.04c14.848-11.264 33.792-17.92 54.784-17.92 50.688 0 88.576 37.888 88.576 88.064s-37.888 88.064-88.576 88.064-88.064-37.888-88.064-88.064c0-12.8 2.56-24.576 6.656-34.816L438.784 447.488c-20.48 30.72-54.272 52.224-92.672 52.224-62.976 0-113.664-50.688-113.664-113.664s50.688-113.664 113.664-113.664c23.552 0 45.568 6.144 63.488 17.408l201.728-86.016c2.56-47.616 39.424-82.944 88.064-82.944 50.688 0 88.064 37.888 88.064 88.064s-37.888 88.576-88.064 88.576z m-75.776 315.392c25.088 0 50.688-18.944 50.688-50.688s-18.944-50.688-50.688-50.688-50.688 25.088-50.688 50.688 25.6 50.688 50.688 50.688z m-277.504-302.592c-37.888 0-69.632 31.744-69.632 69.632s31.744 69.632 69.632 69.632 69.632-31.744 69.632-69.632c-0.512-37.888-31.744-69.632-69.632-69.632z m353.28-151.552c-31.744 0-50.688 18.944-50.688 50.688s25.088 50.688 50.688 50.688 50.688-18.944 50.688-50.688c-0.512-31.744-19.456-50.688-50.688-50.688zM509.952-74.752c-61.952 0-122.368 12.288-179.2 36.352-54.784 23.04-103.936 56.32-146.432 98.816s-75.776 91.648-98.816 146.432c-24.064 56.832-36.352 117.248-36.352 179.2s12.288 122.368 36.352 179.2C108.544 620.032 141.824 669.184 184.32 711.68s91.648 75.776 146.432 98.816c56.832 24.064 117.248 36.352 179.2 36.352s122.368-12.288 179.2-36.352c54.784-23.04 103.936-56.32 146.432-98.816s75.776-91.648 98.816-146.432c24.064-56.832 36.352-117.248 36.352-179.2s-12.288-122.368-36.352-179.2c-23.04-54.784-56.32-103.936-98.816-146.432s-91.648-75.776-146.432-98.816c-56.832-24.064-117.248-36.352-179.2-36.352z m0 875.52c-228.864 0-414.72-185.856-414.72-414.72s185.856-414.72 414.72-414.72 414.72 185.856 414.72 414.72-185.856 414.72-414.72 414.72z"  horiz-adv-x="1024" />

    
    <glyph glyph-name="paishe" unicode="&#59042;" d="M521.20302734 510.1265625c-95.96513673 0-174.01640625-78.04863281-174.01640625-174.01289063 0-95.96601562 78.05214844-174.01640625 174.01640625-174.01640625 95.96689453 0 174.01904297 78.05039062 174.01904297 174.01640625 0 95.96513673-78.07587891 174.01289063-174.01904297 174.01289063m369.82001954 149.93964844h-162.73828125l-64.15488282 82.3930664a18.68378905 18.68378905 0 0 1-14.76738281 7.20966797H383.69462892c-5.93876953 0-11.55498047-2.81689453-15.0714844-7.63242186l-60.35712889-81.9694336H132.62451172c-37.9265625 0-68.74277344-30.81621095-68.74277344-68.71904299v-504.21005858c0-37.90283203 30.81621095-68.71904297 68.74277344-68.71904297h758.39853515c37.9265625 0 68.74101563 30.81621095 68.74101563 68.71904297V591.3480468600001c0 37.87910156-30.81445313 68.71816406-68.74101563 68.71816408M521.20302734 124.69277344c-116.60097657 0-211.44287109 94.84277344-211.44287108 211.4446289 0 116.60097657 94.84189453 211.44375001 211.44287108 211.44374999 116.60361328 0 211.44462892-94.84277344 211.44462891-211.44374999 0-116.60185547-94.84101562-211.44462892-211.44462891-211.4446289M811.10058594 501.14677735c-15.12070313 0-27.39902345 12.27304688-27.39902344 27.39902343 0 15.11894531 12.27832031 27.39462891 27.39902344 27.39462891 15.11894531 0 27.39902345-12.27568359 27.39902344-27.39462891 0-15.12597655-12.27919922-27.39902345-27.39902344-27.39902345m0 0"  horiz-adv-x="1024" />

    
    <glyph glyph-name="xinxi" unicode="&#59043;" d="M566.14941406 795.73681641l-25.59902343-5.11347657-20.48730469-5.13017578-15.35625-5.11347654-10.24365233-5.1161133-15.35976564-5.12666015-10.23046876-5.11347657-10.23925779-5.11699219-5.11699219-5.12666015-10.24365235-5.11611328-10.24277344-5.12666016-5.11347657-5.11347656-10.24365234-5.11699219-5.11347657-5.12666016-5.12929687-5.11611328-5.11347656-5.11347656-5.11699219-5.13017578-5.12666015-5.11347657-5.1169922-5.11699218-5.12666016-5.12666016-5.11259764-5.11611327-5.11699219-5.11347657-5.12666016-5.12666016-5.11699218-5.11699218-5.11259767-5.12666015-5.13017576-10.23046876-5.11347657-5.12929688-5.1169922-10.23046875-5.12666015-10.23925781v-5.11699219h51.1998047l5.11699218 5.11699219 5.12666015 5.11347658 5.11699219 5.12666016 5.11347656 10.22958982 5.12929687 5.13017578 5.11347657 5.11347657 5.1169922 5.11611329 5.12666014 5.12666015 5.11347657 5.11699218 10.24277343 5.12666016 5.11699217 5.11347657 5.12666017 5.11611327 10.23046876 5.12666016 10.24277344 5.11699218 5.11347656 5.11347657 10.24365234 5.13017578 10.24277344 5.11347656 15.35712891 5.11611328 10.24277342 5.12666016 15.36064454 5.11699219 20.46972659 5.11347656 30.71689451 5.12666016h87.0328125l25.59990234-5.12666016 20.48378906-5.11347656 20.47324219-5.11699219 10.24365236-5.12666016 15.35624999-5.11611328 10.24365234-5.11347656 10.23046875-5.13017578 5.12929686-5.11347657 10.23046876-5.11699218 10.24277344-5.12666016 5.12666018-5.11611327 5.11347654-5.11347657 10.24277344-5.12666016 5.11699219-5.11699218 5.11347655-5.12666015 5.12666016-5.11611329 5.11699219-5.11347657 5.11611328-5.13017578 5.12666016-10.23046875 5.11347656-5.12578123 5.13017578-5.11347658 5.11347657-10.24365234 5.11611328-10.24365235 5.12666015-10.22958983 5.11699219-10.24365236 5.11347657-15.35625 5.12666013-15.35976562v-81.91669921l-5.12666013-15.35712891-5.11347657-15.35625001-5.11699219-10.24365233-5.12666015-10.24365235-5.11611328-10.23046875-5.11347657-10.24277344-5.13017578-5.11347656-5.11347656-5.12929688-5.12666016-5.11347656-5.11611328-10.24365234-5.11699219-5.11347657-5.12666016-5.11611328-10.23046874-5.12666014-5.12666016-5.1169922-5.11611328-5.12666016-5.11347654-5.11699219-5.12666018-10.23925781v-35.83300781l5.12666018-15.35712891 5.11347654-20.48730466 4.86298828-10.99599612-9.97646482 5.88339844-15.37031253 5.11259768-10.23046874 5.13017576-15.35888672 5.11347656-10.24365234 5.1169922-15.35624999 5.12666014h-5.12666016l-5.1169922-25.59990234v-20.48730469l5.1169922-5.11259764 10.24277344-5.1169922 15.35712889-5.12666016 15.35625-5.11699219 10.24365235-5.11347654 15.35976562-5.12666016 10.23925781-5.11611329 15.36064454-5.11347657 15.3571289-5.13017577 10.24277344-5.11347657 15.35712891-5.12929687h15.35976562v15.37294921l-5.11699219 15.35625002-5.12666015 20.47412109-5.11611328 15.35624999-5.11347657 20.48730468-5.13017578 15.35625-5.11347656 20.47324219v15.35625l5.11347656 5.13017579 5.13017578 5.11347655 5.11347657 5.11699219 5.11611328 5.12666016 5.12666015 5.11259765 5.11699219 5.11699219 5.11347657 5.12666016 5.12666013 5.1169922 5.1161133 10.24277342 5.11347655 5.11347657 5.13017579 5.12666015 5.11347657 10.23046875 5.11699218 10.24277344 5.12666016 10.24365234 5.11611328 10.23046875 5.12666015 15.36943362 5.11347657 15.3597656 5.11699219 25.58671875v71.67392578l-5.11699219 25.59990237-5.11347657 20.48642577-5.12666015 10.23046874-5.11611328 10.24277344-5.12666016 10.24365234-5.11699218 10.23925781-5.11347657 10.23046875-5.13017579 5.13017578-5.11347655 10.23046875-5.1161133 5.12578126-5.12666013 5.11699218-5.11347657 5.12666016-5.11699219 5.11347657-5.12666015 10.24277343-10.23046875 5.11699218-5.12929688 5.11347657-5.11347656 5.13017578-5.12666016 5.11347656-5.11611328 5.11611328-5.11699219 5.12666016-10.23925781 5.11699219-5.11787109 5.11347656-10.24277344 5.12666016-10.24013672 5.11611328-5.11699219 5.12666015-10.24277343 5.11699219-10.24365235 5.11347657-15.35625 5.12666015-10.23046873 5.1161133-20.4873047 5.11347654-15.35625 5.13017578-25.59990235 5.11347657-35.82949219 5.13017578h-66.55957032z m-255.99287109-204.77636719l-20.4732422-5.13017576-15.35624999-5.11347659-15.36064453-5.11699219-15.35625-5.12666015-10.24365234-5.11611328-10.24277344-5.12666016-10.23046875-5.11347655-10.23925781-5.1169922-5.13105469-5.12666015-10.22958984-5.11699218-5.12666016-5.11259767-10.23046875-5.13017577-5.12666016-5.11347657-5.11611328-5.11699219-5.11699219-5.12666015-5.12666015-5.11259765-5.11347655-5.1169922-5.1161133-5.12666015-5.12666015-5.11699219-5.11699219-5.12666016-5.12666017-5.11611327-5.11347655-5.11347657-5.11611327-5.12666016-5.12666017-10.23046875-5.11699218-5.12929687-5.11347657-10.23046873-5.13017578-5.12666017-5.11259766-10.24365235-5.12666016-15.35625-5.11699218-10.23046875-5.11347656-15.35976563-5.13017578-20.48291014-5.11347656-46.07402345v-5.12929687l5.11347656-46.07402342 5.13017578-20.46972659 5.11347656-15.35976562 5.11699218-10.24365235 5.12666016-15.35625001 5.11259766-5.11347655 5.13017578-10.24365234 5.11347657-10.24277344 5.11699218-5.11699219 5.12666017-10.2392578 5.11611327-5.1169922 5.11347655-5.12666016 5.12666017-5.11699218 5.11699219-5.11347656 5.12666015-5.13017578 5.1161133-5.11347656 5.11347655-5.12666016 5.12666015-5.11611327 5.11699219-5.11347658v-5.13017577l-5.11699219-20.4732422-5.12666015-15.35624999-5.11347655-20.48730469-5.1161133-15.35625-5.12666015-20.47324219-5.11699219-15.35712891-5.12666017-20.48642578v-5.11347654h15.37031251l10.23046875 5.11347654 15.35888672 5.12666016 10.24013672 5.11699219 15.36064453 5.11611328 15.35625 5.12666015 10.24365234 5.11347657 15.35625001 5.13017578 10.24365234 5.11347656 15.35625 5.11611328 15.36064453 5.12666016 10.24277344 5.11699218 15.35712891 5.11347657h143.34609374l30.71777344 5.12666015 20.4723633 5.11699219 15.35712889 5.11259766 15.36943358 5.13017578 15.36064455 5.11347657 10.22958984 5.12666015 10.23925781 5.11699219 10.24453125 5.11611328 10.24277344 5.12666015 5.11699219 5.11347656 10.23925781 5.11699219 5.11699219 5.12666016 10.24365234 5.11611328 5.11347656 5.11347657 5.11611328 5.13017577 5.12666016 5.11347658 5.11699219 5.11611327 5.11347656 5.12666016 10.24277344 5.11347656 5.12666014 10.24365234 5.1169922 5.11699218 5.11347656 5.12666016 5.13017579 5.11611328 5.11347657 10.24013672 5.11611327 5.11699219 5.12666017 5.11347657 5.11347655 10.24277344 5.13017577 10.24365232 5.11347657 10.24277344 5.11611328 10.23046876 5.12666016 15.35625 5.11699219 20.48730469 5.11347656 35.82949219v35.84355468l-5.11347656 35.84355469-5.11699219 20.47324219-5.12666016 15.35625-5.11611328 10.24365234-5.11347657 10.23046875-5.13017577 10.24277345-5.11347655 10.24365233-5.12666017 5.11347657-5.11611327 5.12929687-5.11347657 10.23046875-5.13017579 5.12666016-5.11347656 5.11347657-5.1169922 5.11611327-5.12666014 10.24365235-5.11611328 5.12666015-10.24013672 5.1169922-5.11699219 5.11259765-5.12666016 5.12666015-5.11611328 5.11699219-5.11347656 5.11347657-10.24365234 5.13017577-5.11611328 5.11259767-10.24013672 5.11699218-5.11699219 5.12666015-10.24277344 5.11699218-10.24365235 5.11347657-10.24013671 5.12666016-10.23046875 5.11611328-15.35976564 5.12666015-10.24277342 5.11699219-20.48378908 5.11347659-20.47324217 5.12929685-25.59990237 5.11347656H340.88310548zM197.52294922 63.62548828000001l-0.84375-5.96953125-4.26884766 5.96953125z"  horiz-adv-x="1024" />

    
    <glyph glyph-name="luyin" unicode="&#59044;" d="M568.889 73.38699999999994v-63.716H711.11c15.929 0 28.445-12.515 28.445-28.444 0-15.93-12.51600001-28.445-28.445-28.445H312.89c-15.929 0-28.445 12.51600001-28.445 28.445s12.51600001 28.44400001 28.445 28.444H455.11v63.716C293.547 100.69299999999998 170.667 240.64 170.667 410.169v2.27500001c0 31.858 5.689 58.027 36.40900001 58.02699999 31.857 0 36.408-26.169 36.408-58.02699999v-10.24C244.622 281.6 386.84400001 142.79100000000005 512 142.79100000000005S779.378 281.6 779.378 403.342v10.24c0 31.858 5.689 58.027 36.409 58.027 31.857 0 36.409-26.169 36.40899999-58.027v-2.275c1.137-170.667-121.743-310.614-283.30699999-337.92zM512 239.50199999999995c-94.43599999 0-170.667 77.37-170.667 172.94200001V528.498h341.334v-114.916c0-96.71-76.231-174.08-170.667-174.08zM341.333 643.413h341.334v-58.026H341.333v58.026zM512 816.35600001c73.95599999 0 136.533-47.787 160.427-114.91600001H351.573C375.467 767.431 438.04400001 816.35600001 512 816.35600001z m0-2e-8"  horiz-adv-x="1024" />

    
    <glyph glyph-name="baocun" unicode="&#59045;" d="M820.576-70.33600001000002h-617.11999999c-76.896 0-139.488 62.56-139.48800001 139.45600001V698.88c0 76.896 62.592 139.45600001 139.48800001 139.45600001h617.11999999c76.896 0 139.45600001-62.56 139.456-139.45600001v-629.76c0-76.896-62.56-139.45600001-139.456-139.45600001z m-617.11999999 860.672c-50.464 0-91.488-41.02400001-91.48800001-91.45599999v-629.76c0-50.432 41.02400001-91.45600001 91.48800001-91.45600001h617.11999999c50.432 0 91.45600001 41.02400001 91.456 91.45600001V698.88c0 50.432-41.02400001 91.45600001-91.456 91.45600001h-617.11999999zM732.32 479.29600001H294.784c-50.016 0-90.71999999 40.672-90.72 90.71999999V809.2480000099999c0 13.24800001 10.752 24.00000003 24 23.99999999s24.00000003-10.752 23.99999999-24.00000001v-239.26399999c0-23.55200001 19.168-42.72 42.72000001-42.72H732.32c23.55200001 0 42.752 19.168 42.752 42.72V806.72000001c0 13.24800001 10.752 24.00000003 24 23.99999999s24.00000003-10.752 24-24.00000001v-236.70399999c0-50.048-40.704-90.71999999-90.752-90.72000002zM626.88000001 557.76000001c-17.696 0-32 14.304-32.00000002 31.99999998V700.1279999999999c0 17.696 14.304 32 32.00000002 32s32-14.304 31.99999998-32V589.76000001c0-17.696-14.304-32-31.99999998-32.00000002z"  horiz-adv-x="1024" />

    
    <glyph glyph-name="kaishi" unicode="&#59046;" d="M652.07292461 399.02311664L447.92941733 590.35328411c-11.48902717 5.74386631-24.74509906 4.85969667-35.79139413-1.32560719-11.0475896-6.62803595-17.23289347-18.11706311-17.23289348-30.48896537v-371.17001324c0-12.3731968 6.62803595-23.86092942 17.23289348-30.48896537 5.74386631-3.53538402 12.37190226-5.30242877 18.99993821-5.30242876 5.74386631 0 11.48902717 1.3256072 16.35001836 3.97682157L651.62889797 335.39397152000004c11.48902717 10.60485751 20.32683995 18.55850066 20.32683995 32.25730465 0 12.81333982-7.5122056 20.32554541-19.88410786 31.37184047zM512 825.86863186c-243.47028543 0-441.86863186-198.39834643-441.86863186-441.86863186 0-243.47028543 198.39834643-441.86863186 441.86863186-441.86863186 243.47028543 0 441.86863186 198.39834643 441.86863186 441.86863186 0 243.47028543-198.39834643 441.86863186-441.86863186 441.86863186z m0-828.50449382c-213.4227576 0-386.63586196 173.6545419-386.63586196 386.63586196 0 213.4227576 173.6545419 386.63586196 386.63586196 386.63586196 213.4227576 0 386.63586196-173.6545419 386.63586196-386.63586196 0-213.4227576-173.21310435-386.63586196-386.63586196-386.63586196z"  horiz-adv-x="1024" />

    
    <glyph glyph-name="kaishi1" unicode="&#59047;" d="M833.00503705 361.24444444999995L258.65481483 29.013333330000023c-32.768-19.11466667-73.728 4.55111111-73.728 41.87022222V734.43555555c0 37.31911111 40.96 60.98488889 72.81777777 42.78044445l575.26044445-331.32088889c32.768-18.20444445 32.768-65.536 0-84.65066666z"  horiz-adv-x="1024" />

    
    <glyph glyph-name="fenxiang" unicode="&#59048;" d="M925.097 403.705c-16.615 0-30.037-13.403-30.03700001-29.94800003v-283.16199997c0-36.342-29.714-65.897-66.176-65.897H194.45599999c-36.453 0-66.152 29.555-66.15199999 65.897V685.17199999c0 36.334 29.69899999 65.91099999 66.15200001 65.91100001H401.25c16.584 0 30.051 13.39799999 30.05100001 29.949 0 16.528-13.46800001 29.933-30.05100001 29.933H194.45599999c-69.622 0-126.265-56.41-126.26499999-125.79299999v-594.57700001c0-69.357 56.643-125.79300001 126.26499999-125.793h634.428c69.646 0 126.281 56.435 126.28100002 125.793V373.75700001999996c0 16.54500003-13.46000001 29.94800001-30.06800001 29.94799998z m-630.92599998-175.53c-2.987-16.239 7.838-31.843 24.17399997-34.83000001 1.823-0.354 3.63800001-0.48199998 5.43600001-0.48199999 14.24000001 0 26.906 10.085 29.539 24.535 0.25 1.27600001 24.087 127.245 107.112 252.467C508.74000001 542.7470000000001 567.286 600.7000000099999 634.42700001 642.107c64.104 39.53899998 136.54500001 64.145 216.09299999 73.54999998l-97.882-100.61499998c-11.542-11.86800002-11.24400001-30.847 0.666-42.348a30.07499999 30.07499999 0 0 1 20.937-8.45600001 30.05199999 30.05199999 0 0 1 21.565 9.10000001l151.54 155.771c0.12 0.10299999 0.209 0.225 0.32 0.33800001 0.162 0.176 0.304 0.328 0.46600001 0.50599999 0.17799999 0.176 0.32000001 0.352 0.50699999 0.561 0 0.016 0.023 0.06400002 0.056 0.064 0.162 0.187 0.304 0.37 0.43400001 0.55500001 0.151 0.18600002 0.346 0.395 0.482 0.57999999 0.143 0.208 0.295 0.392 0.43999999 0.57800001 0.153 0.241 0.307 0.466 0.507 0.69699998 0.073 0.162 0.193 0.306 0.288 0.459 0.122 0.16 0.194 0.304 0.30600001 0.48200001 0.056 0.048 0.089 0.10299999 0.12799999 0.15099999 0.016 0.04099999 0.04 0.10599999 0.056 0.14400001 0.105 0.17 0.17799999 0.306 0.306 0.45 0.136 0.288 0.281 0.513 0.45000002 0.803 0.08 0.144 0.16 0.31199999 0.23999999 0.457 0.02399999 0.057 0.057 0.122 0.08999999 0.17 0.111 0.225 0.224 0.45 0.337 0.658 0.073 0.17799999 0.185 0.363 0.24 0.55499999 0.13699999 0.241 0.258 0.474 0.355 0.75500001 0.097 0.209 0.168 0.40100001 0.25700001 0.61 0.097 0.257 0.217 0.48199998 0.273 0.707 0.105 0.23300001 0.184 0.458 0.273 0.707 0.09 0.209 0.145 0.433 0.21 0.642 0.113 0.25 0.16 0.498 0.23999999 0.76299999 0.088 0.225 0.112 0.426 0.16 0.63500001 0.10599999 0.248 0.153 0.53800001 0.20900001 0.80999998 0.05 0.162 0.097 0.32000001 0.14399999 0.49000001 0 0.065 0 0.10399998 0.02500001 0.14500001 0.056 0.248 0.10299999 0.512 0.15999999 0.802 0.02399999 0.136 0.057 0.27299999 0.07200001 0.434 0.016 0.10299999 0.033 0.224 0.04999999 0.346a4.14000001 4.14000001 0 0 0 0.11900001 0.618c0.016 0.136 0.032 0.287 0.032 0.4 0.032 0.218 0.049 0.394 0.07199999 0.586 0.033 0.136 0.04099999 0.209 0.041 0.33700001 0 0.097 0.017 0.19200001 0.01700001 0.31399999 0 0.056 0.031 0.112 0.05600001 0.176 0 0.26500001 0.016 0.498 0.01599999 0.772 0 0.031 0 0.08 0.01499999 0.12000001v0.48899999c0.016 0.346 0.016 0.64300001 0.016 0.948v0.056c0 0.499-0.016 0.97199999-0.016 1.454-0.015 0.04099999-0.015 0.098-0.01499999 0.11999999V751.8429999800001c-0.016 0.37-0.072 0.682-0.08900001 1.02800002a1.321 1.321 0 0 0-0.03999999 0.314c0 0.065 0 0.10399998-0.02400001 0.144-0.05 0.306-0.065 0.618-0.106 0.932a3.485 3.485 0 0 0-0.07199999 0.41 0.667 0.667 0 0 0-0.02300001 0.16c-0.049 0.25-0.08 0.497-0.122 0.787-0.056 0.17-0.087 0.328-0.11999999 0.49000001 0 0.04 0 0.073-0.016 0.10299999-0.023 0.04099999-0.023 0.08099999-0.023 0.13-0.056 0.2-0.09 0.39299999-0.17000001 0.594a8.55 8.55 0 0 1-0.23199998 0.94 4.59600001 4.59600001 0 0 1-0.09000002 0.378c-0.11 0.346-0.216 0.68999999-0.33699998 1.067-0.016 0.073-0.04099999 0.128-0.05600001 0.20900001-0.09 0.248-0.195 0.498-0.27400001 0.77999999 0 0-0.04 0.031-0.03999999 0.08700002-0.017 0.08-0.096 0.208-0.12000001 0.28999998 0 0.06400002-0.017 0.08-0.057 0.16-0.113 0.25-0.17799999 0.514-0.32 0.772a6.513 6.513 0 0 1-0.194 0.45000001c0 0.02399999-0.032 0.04-0.032 0.04a14.858 14.858 0 0 1-0.346 0.81799999h-0.016c-0.282 0.58799999-0.555 1.15000001-0.923 1.73600001-0.225 0.39999999-0.475 0.79599999-0.691 1.212-0.025 0.025-0.06400002 0.073-0.097 0.106a4.832 4.832 0 0 1-0.44999999 0.66599999l-0.04 0.064c-0.057 0.114-0.10399998 0.226-0.2 0.32300001a5.47 5.47 0 0 1-0.258 0.35199999c-0.072 0.08-0.12 0.17-0.19200001 0.25-0.065 0.10299999-0.10599999 0.175-0.19499999 0.26400002a2.426 2.426 0 0 0-0.17600001 0.25699999c-0.152 0.2-0.32000001 0.40100001-0.482 0.62700001-0.089 0.08-0.176 0.184-0.27299999 0.29699998-0.032 0.04-0.06400002 0.128-0.136 0.16-0.2 0.26500001-0.40100001 0.49-0.61800001 0.723-0.073 0.065-0.112 0.12-0.16 0.18500001-0.288 0.31399998-0.619 0.618-0.867 0.92399999-0.065 0.02200002-0.08099999 0.048-0.112 0.079-0.31399998 0.31399998-0.66000001 0.642-0.972 0.956-0.016 0.015-0.016 0.015-0.03999999 0.023-0.354 0.306-0.685 0.593-1.04500001 0.883 0 0.016-0.04 0.056-0.056 0.056-0.354 0.27299999-0.699 0.563-1.045 0.813-0.056 0.031-0.089 0.06400002-0.152 0.11100001-0.306 0.217-0.62700001 0.44199999-0.95599999 0.683-0.09 0.06400002-0.176 0.128-0.29 0.192-0.16 0.10599999-0.304 0.209-0.49000001 0.31399999-0.12 0.095-0.24 0.152-0.38499999 0.24a4.904 4.904 0 0 0-0.43300001 0.282c-0.112 0.073-0.257 0.153-0.402 0.234-0.128 0.095-0.27299999 0.143-0.43299998 0.224a3.97700003 3.97700003 0 0 1-0.51300001 0.273c-0.24899999 0.136-0.48199998 0.25-0.73900001 0.387-0.19200001 0.128-0.395 0.19200001-0.61 0.28100002a11.669 11.669 0 0 1-0.707 0.32899998c-0.217 0.095-0.45 0.176-0.666 0.281-0.217 0.08-0.459 0.16-0.675 0.265-0.25 0.08-0.49 0.168-0.755 0.273-0.202 0.065-0.395 0.136-0.612 0.2-0.111 0.04-0.248 0.065-0.37599999 0.12900001l-220.68000001 72.88599999c-15.782 5.22700001-32.816-3.326-38.01099999-19.01-5.23-15.68399999 3.32399998-32.648 19.064-37.86000001l88.785-29.31299999c-65.253-14.055-125.799-38.17300002-181.014-72.24-74.618-46.019-139.38900001-109.986-192.547-190.153-89.707-135.318-115.013-269.06800001-116.06499999-274.715z m0 0"  horiz-adv-x="1024" />

    
    <glyph glyph-name="xiajiantou" unicode="&#59049;" d="M140.35424108 658.96775366h749.45559127c41.47677609 0 75.02052957-33.28452365 75.02052959-74.75982683 0-19.28463884-7.39983391-36.72226495-19.28316592-49.93267707L574.91773594 39.74275852000005c-24.83156845-32.75722657-71.59309855-39.6282905-104.61102785-14.79377625-5.81352398 4.22868694-10.83315653 9.25126529-14.79524915 14.79524914l-374.8669844 499.80988077c-24.56202833 32.75869947-17.95903164 79.77209492 15.06037058 104.34590641 13.47700643 10.30438656 29.0602554 15.06037058 44.64350437 15.06037056z"  horiz-adv-x="1024" />

    
    <glyph glyph-name="logo" unicode="&#59050;" d="M478.72173616 320.48132212999997V477.48292371h-6.2137837v-47.08667206c-0.41425225-7.18037229-6.62803595-12.70373557-13.80840823-12.15139923-6.90420412 0.41425225-9.11354943 6.62803595-9.11354942 13.67032415V523.46492313c0 14.36074457 11.46097883 26.23597565 25.95980746 26.37405972h3.86635432c20.02219194-17.53667845 49.98643779-17.53667845 70.00862972 0h3.86635429c14.36074457-0.13808409 25.95980747-11.87523108 25.95980749-26.37405972v-92.24016698c0-7.7327086-3.31401797-13.67032415-10.77055843-13.11798782-7.04228819 0.69042042-12.28948332 6.62803595-12.15139924 13.67032414v45.70583124h-6.2137837v-154.51608809c234.19060358 24.9932189 337.61558124 248.41326406 351.83824171 372.13660181-26.23597565 22.92195766-60.61891214 37.00653407-98.17778251 37.00653406H220.36641817c-82.57428122 0-149.54506114-66.97077991-149.54506114-149.54506112v-396.30131624c0-23.33620992 5.5233633-45.42966308 15.05116499-65.03760276 37.14461813 83.95512204 157.13968566 198.2887422 392.84921414 199.25533076z m-6.48995186 273.40648297c0.41425225 23.33620992 19.6079397 41.83947694 42.9441496 41.42522469 23.33620992-0.41425225 41.83947694-19.6079397 41.42522468-42.9441496v-1.65700899c-0.41425225-23.33620992-19.74602377-41.83947694-42.9441496-41.2871406-23.33620992 0.41425225-41.83947694 19.74602377-41.2871406 42.94414959-0.13808409 0.41425225-0.13808409 0.96658859-0.13808408 1.51892491zM511.1714955 320.34323807c2.20934532 0 4.28060655 0.13808409 6.48995187 0.13808406v84.64554246h-6.48995187v-84.78362652zM932.6041147 657.8207352C926.390331 520.15090515 830.97423013 229.62199598999996 526.91308089 230.72666863999996c-274.09690337 0.96658859-388.98285985-66.00419135-419.22327387-143.05510927 27.47873238-31.34508668 67.66120033-51.36727861 112.67661115-51.36727862h583.26716366c82.57428122 0 149.54506114 66.97077991 149.54506114 149.54506115v396.3013162c0 27.61681646-7.59462453 53.43853985-20.57452827 75.6700771z"  horiz-adv-x="1024" />

    
    <glyph glyph-name="kaishixunjian" unicode="&#59051;" d="M76.06855216 62.95450863999997c-32.03550709 53.30045577 74.42732035 280.31068708 413.56182651 273.13031479 339.13450613-7.18037229 489.92232401 296.74269287 413.5618265 391.33028926 0 0 20.57452827-24.02663031 36.86844997-44.32499042 53.43853985-66.55652767-48.74368105-436.89803642-420.88028285-435.51719559-346.86721475 1.10467265-435.65527967-107.70558419-420.88028287-206.84995528-2.3474294 0.8285045-5.5233633-5.5233633-22.23153726 22.23153724zM474.02687737 454.83713422V607.42004517l130.76562594-76.22241344-130.76562594-76.36049751z"  horiz-adv-x="1024" />

    
    <glyph glyph-name="bendicaogao" unicode="&#59052;" d="M915.61977259 12.41573452H676.04388978v64.62335051h161.5583763c46.39625165 0 38.9397112 56.75255783 32.31167525 96.93502579L772.97891555 723.27259022c-3.45210207 20.98878051-32.31167525 64.62335052-64.62335052 64.62335053H320.61546192c-32.31167525 0-61.17124846-43.63457002-64.62335051-64.62335053l-96.79694169-549.2984794c-6.48995186-40.18246795-32.31167525-96.93502578 14.08457638-96.93502579h179.78547517v-64.62335051H135.72087571c-51.64344678 0.27616816-73.46073179 13.53224006-64.20909826 57.99531457l129.24670104 690.00615926c3.72827022 23.75046215 28.85957319 59.79040765 64.48526643 59.79040765H749.50462157c35.62569324 0 64.7614346-36.03994548 68.48970481-59.79040765l130.07520553-688.07298211c7.31845635-45.42966308 18.7794352-59.92849171-32.44975932-59.92849172zM772.97891555 270.90913659H255.99211141v64.62335052H772.97891555v-64.62335052zM288.30378667 464.77918815h452.36345363v-64.62335052H288.30378667v64.62335052z m32.44975935 129.24670103h387.7401031v-64.62335051H320.75354602v64.62335051z m32.31167525 96.93502579h322.97866851v-32.31167527H353.06522127v32.31167527z m322.97866851-613.92182994h-129.24670103l32.31167525-129.24670103H449.86216297l32.31167525 129.24670103h-129.24670104l161.5583763 161.5583763 161.5583763-161.5583763z"  horiz-adv-x="1024" />

    
    <glyph glyph-name="xinxi1" unicode="&#59053;" d="M512 864C247.3109375 864 32 648.6890625 32 384c0-96.166875 28.340625-188.994375 81.9965625-268.3828125 9.6834375-14.3371875 29.13375001-18.09375001 43.471875-8.43093751 14.315625 9.6834375 18.09375001 29.154375 8.409375 43.47187501-46.621875 69.015-71.26875001 149.69624999-71.26875 233.341875C94.6090625 614.1496875 281.8503125 801.3909375000001 512 801.3909375000001S929.3909375 614.1496875 929.3909375 384 742.1496875-33.39093749999995 512-33.39093749999995c-85.606875 0-167.874375 25.7109375-237.89250001 74.3784375-14.25375001 9.871875-33.7246875 6.38625001-43.57499998-7.8253125-9.871875-14.191875-6.36562499-33.705 7.82531249-43.5553125C318.9359375-66.40687500000001 413.5578125-96 512-96c264.6890625 0 480 215.3109375 480 480C992 648.6890625 776.6890625 864 512 864z m0.00374999-223.0265625c-34.58062501 0-62.608125-28.0284375-62.60812499-62.6090625s28.0275-62.608125 62.60812499-62.60812499c34.5815625 0 62.6090625 28.0275 62.6090625 62.60812499 0 34.58062501-28.0275 62.6090625-62.6090625 62.6090625zM512 460.9359375c-28.82062501 0-52.17375001-23.353125-52.17375001-52.17374999v-250.43437501c0-28.8215625 23.353125-52.1746875 52.17375001-52.1746875s52.17375001 23.353125 52.17375001 52.17375v250.43437499c0 28.8215625-23.353125 52.1746875-52.17375001 52.17468751z"  horiz-adv-x="1024" />

    


  </font>
</defs>
</svg>
